# xmcd
#
# Track frame offsets:
#	150
#	17322
#	34487
#	54415
#	69510
#	91530
#	114222
#	132767
#	152080
#	172077
#	189450
#	212745
#
# Disc length: 3076 seconds
#
# Revision: 4
# Processed by: cddbd v1.5PL3 Copyright (c) Steve Scherf et al.
# Submitted via: dBpowerAMP V4.0
#
DISCID=940c020c
DTITLE=山本達彦 - STAGE SELECTION
DYEAR=1900
DGENRE=Pop
TTITLE0=嘘の台詞
TTITLE1=Music
TTITLE2=Lonely Journey
TTITLE3=Summer Holiday
TTITLE4=夢より苦しく
TTITLE5=紫陽花
TTITLE6=Missing Love
TTITLE7=Farewell Midnight Blue
TTITLE8=Le Mistral
TTITLE9=Bird
TTITLE10=雨に想いを
TTITLE11=夏の愛人
EXTD=
EXTT0=
EXTT1=
EXTT2=
EXTT3=
EXTT4=
EXTT5=
EXTT6=
EXTT7=
EXTT8=
EXTT9=
EXTT10=
EXTT11=
PLAYORDER=
